<svg version="1.0" xmlns="http://www.w3.org/2000/svg" width="682.667" height="682.667" viewBox="0 0 512 512"><path d="M331 19.1c-4 1.1-12.7 4.3-19.4 7.3-15 6.6-62.3 28-69.1 31.1-2.7 1.3-9.3 4.2-14.5 6.5-5.2 2.3-11.5 5.1-14 6.2-2.5 1.1-7 3.2-10 4.6-3 1.3-10.8 4.9-17.3 7.8-6.5 3-12 5.4-12.2 5.4-.3 0-4.2 1.7-8.7 3.9-12.6 5.8-19.6 9-27.8 12.6-9 3.9-47.5 21.3-57.8 26.1-4.1 1.9-7.6 3.4-7.8 3.4-.2 0-3.2 1.3-6.6 2.9-3.5 1.5-8.5 3.8-11.3 5-16.9 7.5-27.4 13.4-32.6 18.3C6.6 174.7-.3 191.2.4 211.5c.4 11.4 2.6 18.9 10 34.9 2.5 5.4 4.6 9.9 4.6 10.1 0 .2 2.2 5.1 5 11 2.7 5.9 5 10.8 5 11 0 .2 1.5 3.6 3.4 7.7 1.9 4 4.5 9.8 5.9 12.8 11 24.6 16 35.6 16.4 36 .3.3 1.6-.9 3-2.5 1.4-1.7 4.2-4.9 6.2-7.2l3.6-4.2 7.5 5.1c16.9 11.5 32.3 16.8 47.5 16.3 12-.4 16.1-1.5 20.3-5.5 4.6-4.4 5.6-12.2 2.1-17.1-3.3-4.7-7.2-6.6-50.4-24.4-1.6-.6-4.6-1.8-6.5-2.5-28.4-10.8-46-34.6-46.3-62.4-.1-18.7 6.1-33.4 19.8-47.1 19.6-19.6 45.7-27.6 79-24.3 8.3.9 21.9 4.6 31.8 8.9C179 172.6 198 186 198 188.9c0 .5-3 4.6-6.7 9.3-3.8 4.6-8.1 10.1-9.8 12.2-1.6 2.1-4 5-5.3 6.5-1.2 1.4-3.2 4.1-4.5 5.8-1.2 1.8-2.6 3.3-3.1 3.3-.4 0-3.5-1.6-6.7-3.5-18.8-11.5-40.8-15.4-54.1-9.6-11.3 4.8-11.9 18.8-1 24.9 2.1 1.2 10.4 4.7 18.3 7.7 7.9 3.1 15.3 6 16.4 6.5 1.1.5 6.1 2.5 11.2 4.4 24.9 9.4 38.5 19.7 45.7 34.8 10.3 21.5 8.4 48.2-4.9 68.2-15.6 23.6-48.6 37.3-84.4 35.2-9-.5-15.5-1.6-31.9-5.3-2.3-.6-2.3-.5-.9 2.8 1.8 4 5.2 11.6 9.9 21.9 1.9 4.1 7 15.4 11.3 25 9.9 21.8 11.9 25.6 17.5 32.3 12.8 15.4 31.8 23.7 52.5 23.2 11.2-.3 18.4-2.2 31.7-8.4 4.6-2.1 17.1-7.8 27.8-12.6s22-9.8 25-11.2c3-1.4 9.3-4.2 14-6.3 4.7-2.1 11-4.9 14-6.3 3-1.3 7.8-3.5 10.5-4.7 2.8-1.2 8.3-3.8 12.3-5.6 4.1-1.9 7.5-3.4 7.7-3.4.2 0 3.6-1.5 7.7-3.4 10.1-4.7 17.8-8.1 28.3-12.8 5-2.2 10.8-4.8 13-5.8 2.2-1 11.7-5.3 21-9.5 9.4-4.2 19.4-8.8 22.3-10.1 2.9-1.3 5.7-2.4 6.3-2.4.6 0 .8-.3.6-.8-.3-.4-5.1-.7-10.7-.6-11.4.1-11.2.3-12.5-8.7-.4-2.4-.8-4.6-1-4.9-.2-.3-.6-2.1-.9-4-.3-1.9-1-6-1.6-9-.6-3-1.3-6.6-1.6-8-.3-1.4-1.4-7-2.5-12.5s-2.2-11.6-2.5-13.5c-.5-2.9-2.2-11.6-8-40.5-.2-1.1-.6-3.4-.9-5-.3-1.7-.7-4.4-1-6-.3-1.7-.8-4.8-1-7-.3-2.2-.7-5.1-.9-6.5-.2-1.4-.7-4.5-1-7-.4-2.5-.8-5.8-1-7.5-.4-3.4-2.1-4.5-2.3-1.4-.2 1.8-1.7 13-2.8 19.9-.2 1.4-.7 4.3-.9 6.5-.3 2.2-1.1 6.7-1.6 10-.6 3.3-1.2 6.9-1.4 8-.5 2.7-2.5 13.4-3.1 16.5-.3 1.4-1.2 6.1-2 10.5-1.6 8.5-1.9 10.1-3.5 18-.5 2.7-1.2 6.6-1.5 8.5-.3 1.9-1.9 10.5-3.5 19s-3.2 17.3-3.6 19.5c-.3 2.2-.8 4.2-1.1 4.5-.2.3-17.3.5-37.8.6h-37.4l-.7-4c-.3-2.3-.8-5-1-6.1-.6-3.1-7.8-43.2-8.8-49.5-1.2-6.8-4.7-26.9-5.2-29.5-.3-1.7-.7-3.9-.9-5-.3-2.1-11.2-64.5-11.9-68.1-.2-1.2-.7-3.9-1-6-.4-2.2-.8-4.6-1.1-5.4-.2-.8-.6-3.1-.9-5-.3-1.9-1.5-8.9-2.6-15.5-4.7-26.6-5.8-33-5.5-33.5.5-.8 60.2-.6 61 .1.7.7 1 2.8 2 11.4 1.2 10.8 1.5 13 2 15.5.2 1.4.7 5.4 1.1 9 .3 3.6.8 7.2.9 8.1.2.9.6 4 1 7 .7 6.7 1.5 12.6 2 15.9.2 1.4.7 5 1 8 .3 3 .8 6.6 1 8 .2 1.4.7 4.7 1 7.5.3 2.7.7 6.1 1 7.5.2 1.4.7 5.6 1 9.5.3 3.8.7 8.1.9 9.5.2 1.4.7 5.6 1 9.3.4 3.7.9 7.6 1 8.5.2.9.7 4.8 1.1 8.7.4 3.8.8 8.3 1 10 .2 1.6.7 5.9 1 9.5.4 3.6 1 6.9 1.5 7.3.6.7 1.7-3.5 2.6-10.3.1-.8.9-5.3 1.8-10 .8-4.7 1.8-10.1 2.1-12 .3-1.9 1.9-10.9 3.6-20 1.7-9.1 3.2-17.6 3.4-19 .2-1.4 1.1-5.7 2-9.5.9-3.9 2.7-12 4-18 1.2-6.1 3.9-18.4 6-27.5 2-9.1 3.8-17.4 4.1-18.5 2.9-14.5 4.7-22.4 5.3-24 .8-2 1.7-2 25.4-2 13.5 0 24.8.3 25.2.7.6.6 3 10.6 5.5 22.8.5 2.5 3 13.9 5.5 25.5 2.6 11.5 4.8 22 5.1 23.1.2 1.2 1.7 8 3.3 15 1.6 7.1 3.2 14.9 3.6 17.4.4 2.5.9 5.3 1.1 6.3.2.9.6 2.5.8 3.5.2.9.7 3.7 1.1 6.2.4 2.5.9 5.6 1.2 7 1.9 10.8 3.6 20.3 5.4 31 2.8 16.5 3.3 17 4.4 5 .3-4.1.8-8.2 1-9 .2-.8.7-4.9 1-9 .4-4.1.9-8.2 1-9.1.2-.8.6-4.9 1-9 .3-4.1.8-8.1 1-8.9.2-.8.6-4.7 1-8.5.6-7.4.8-9.2 2.5-22 .9-7.8 1.2-9.7 2.4-20 .4-2.8.9-6.4 1.1-8 .2-1.7.7-5.3 1-8 .5-4.3 1.8-14 3-22.5.2-1.4.7-5.4 1-9 .4-3.6.9-7.2 1-8 .2-.8.6-3.7.9-6.5.4-2.7.9-5.2 1.2-5.4.3-.3 2.4-.6 4.7-.6 2.3-.1 4.1-.6 4-1.1-.1-.5-1.5-3.8-3.1-7.4-1.7-3.6-5-11-7.5-16.5s-5.8-12.9-7.5-16.5c-1.6-3.6-8-17.8-14.2-31.5-16.7-37.1-16.9-37.5-20.6-43.1-7-10.5-19.1-20.4-30.4-24.8-12-4.7-27.4-5.7-40-2.5zM489.7 242c-.3.8-1.3 6.2-2.2 12-1.8 10.5-1.9 11.4-2.9 18-.3 1.9-1.4 8.7-2.5 15-1.1 6.3-2.3 13.3-2.7 15.5-.3 2.2-1.7 10.7-3.1 19-1.4 8.2-2.7 16.3-3 18-.2 1.6-1.2 7.6-2.2 13.3-.9 5.7-1.3 10.5-.9 10.8.9.6 10.8-4.7 15.6-8.3 9.3-7 17.1-17.4 21.8-29.2 3.2-7.8 3.9-12.5 3.9-24.6-.1-11.4-1.9-18.7-8.6-33.1-6-13.2-8.4-18.4-10.7-23.4-1.3-2.9-2.2-4-2.5-3z"/></svg>
